<?xml version="1.0" standalone="no"?><!DOCTYPE svg PUBLIC "-//W3C//DTD SVG 1.1//EN" "http://www.w3.org/Graphics/SVG/1.1/DTD/svg11.dtd"><svg t="1576036005193" class="icon" viewBox="0 0 1024 1024" version="1.1" xmlns="http://www.w3.org/2000/svg" p-id="6466" xmlns:xlink="http://www.w3.org/1999/xlink" width="200" height="200"><defs><style type="text/css"></style></defs><path d="M259.072 303.104q30.72 0 52.736 22.016t22.016 53.76q0 30.72-22.016 52.736t-52.736 22.016q-31.744 0-53.248-22.016t-21.504-52.736q0-31.744 21.504-53.76t53.248-22.016zM864.256 57.344q43.008 0 69.12 28.672t26.112 65.536l0 550.912q0 23.552-16.896 39.936t-40.448 16.384l-70.656 0 0-123.904 44.032 0q11.264 0 19.456-8.192t8.192-20.48q0-11.264-8.192-19.456t-19.456-8.192l-44.032 0 0-79.872 44.032 0q11.264 0 19.456-8.192t8.192-19.456-8.192-19.968-19.456-8.704l-44.032 0 0-72.704 44.032 0q11.264 0 19.456-8.192t8.192-20.48q0-11.264-8.192-19.456t-19.456-8.192l-44.032 0 0-86.016q0-57.344-26.624-80.896t-90.112-23.552l-394.24 0 0-9.216q0-23.552 16.896-39.936t40.448-16.384l486.4 0zM692.224 184.32q39.936 0 57.856 23.04t17.92 59.904l0 565.248q0 23.552-19.456 43.52t-48.128 19.968l-572.416 0q-24.576 0-44.032-20.48t-19.456-48.128l0-575.488q0-29.696 16.384-48.64t43.008-18.944l568.32 0zM703.488 291.84q0-17.408-10.752-30.208t-34.304-12.8l-488.448 0q-4.096 0-11.264 1.536t-14.336 5.12-12.288 9.728-5.12 15.36l0 274.432q8.192 9.216 23.04 22.016t34.816 23.552 44.544 18.432 53.248 7.68q43.008 0 75.264-13.824t59.904-34.816 54.272-45.056 58.88-45.568 73.728-36.352 98.816-16.896l0-142.336z" p-id="6467"></path></svg>