<?xml version="1.0" standalone="no"?><!DOCTYPE svg PUBLIC "-//W3C//DTD SVG 1.1//EN" "http://www.w3.org/Graphics/SVG/1.1/DTD/svg11.dtd"><svg t="1576036635178" class="icon" viewBox="0 0 1024 1024" version="1.1" xmlns="http://www.w3.org/2000/svg" p-id="11190" xmlns:xlink="http://www.w3.org/1999/xlink" width="200" height="200"><defs><style type="text/css"></style></defs><path d="M910.222222 216.177778c6.257778 0 11.377778-5.12 11.377778-11.377778l0-34.133333c0-6.257778-5.12-11.377778-11.377778-11.377778L546.133333 159.288889l0-20.821333c0-18.545778-13.880889-35.043556-32.312889-36.067556C494.136889 101.376 477.866667 117.077333 477.866667 136.533333l0 22.755556L113.777778 159.288889c-6.257778 0-11.377778 5.12-11.377778 11.377778l0 34.133333c0 6.257778 5.12 11.377778 11.377778 11.377778l22.755556 0 0 443.733333-22.755556 0c-6.257778 0-11.377778 5.12-11.377778 11.377778l0 34.133333c0 6.257778 5.12 11.377778 11.377778 11.377778l242.232889 0-84.195556 135.054222c-9.784889 15.701333-6.712889 36.864 8.305778 47.445333 6.030222 4.323556 12.856889 6.257778 19.683556 6.257778 11.377778 0 22.528-5.688889 29.013333-16.042667L436.451556 716.8l162.474667 0 107.633778 172.714667c6.485333 10.353778 17.635556 16.042667 29.013333 16.042667 6.826667 0 13.653333-1.934222 19.683556-6.257778 15.018667-10.581333 18.090667-31.744 8.305778-47.445333L679.367111 716.8 910.222222 716.8c6.257778 0 11.377778-5.12 11.377778-11.377778l0-34.133333c0-6.257778-5.12-11.377778-11.377778-11.377778l-22.755556 0L887.466667 216.177778 910.222222 216.177778zM477.866667 580.266667 216.177778 580.266667 216.177778 295.822222l261.688889 0L477.866667 580.266667zM807.822222 557.511111 557.511111 557.511111l0-34.133333 250.311111 0L807.822222 557.511111zM807.822222 455.111111 557.511111 455.111111l0-34.133333 250.311111 0L807.822222 455.111111zM807.822222 352.711111 557.511111 352.711111l0-34.133333 250.311111 0L807.822222 352.711111z" p-id="11191"></path></svg>