<?xml version="1.0" standalone="no"?><!DOCTYPE svg PUBLIC "-//W3C//DTD SVG 1.1//EN" "http://www.w3.org/Graphics/SVG/1.1/DTD/svg11.dtd"><svg t="1576036690715" class="icon" viewBox="0 0 1024 1024" version="1.1" xmlns="http://www.w3.org/2000/svg" p-id="11973" xmlns:xlink="http://www.w3.org/1999/xlink" width="200" height="200"><defs><style type="text/css"></style></defs><path d="M512 0C229.682855 0 0 229.682855 0 512S229.682855 1024 512 1024 1024 794.317145 1024 512 794.317145 0 512 0z m0 954.574869c-244.036094 0-442.574869-198.538774-442.574869-442.574869S267.963906 69.425131 512 69.425131 954.574869 267.963906 954.574869 512 756.036094 954.574869 512 954.574869z" fill="" p-id="11974"></path><path d="M512 136.367838c-207.123825 0-375.632162 168.508337-375.632162 375.632162S304.876175 887.632162 512 887.632162c207.120377 0 375.632162-168.508337 375.632162-375.632162S719.120377 136.367838 512 136.367838z m0 681.839192c-168.842774 0-306.20703-137.364256-306.20703-306.20703S343.157226 205.79297 512 205.79297s306.20703 137.364256 306.20703 306.20703-137.364256 306.20703-306.20703 306.20703z" fill="" p-id="11975"></path><path d="M398.360135 295.46365c-56.733737 0-102.893037 46.1593-102.893037 102.896485 0 56.740633 46.1593 102.899933 102.893037 102.899932s102.896485-46.1593 102.896485-102.899932c-0.003448-56.737185-46.162747-102.896485-102.896485-102.896485z m0 136.371286c-18.456135 0-33.471354-15.015219-33.471354-33.474801 0-18.456135 15.015219-33.471354 33.471354-33.471354 18.459582 0 33.471354 15.011771 33.471353 33.471354 0 18.456135-15.015219 33.474801-33.471353 33.474801zM625.639865 501.25662c56.737185 0 102.896485-46.1593 102.896485-102.899933 0-56.737185-46.1593-102.896485-102.896485-102.896485-56.737185 0-102.896485 46.1593-102.896485 102.896485 0 56.740633 46.1593 102.899933 102.896485 102.899933z m0-136.367839c18.459582 0 33.471354 15.011771 33.471354 33.471354s-15.015219 33.474801-33.471354 33.474801-33.474801-15.015219-33.474801-33.474801c0-18.459582 15.018667-33.471354 33.474801-33.471354zM398.360135 522.74338c-56.733737 0-102.893037 46.1593-102.893037 102.899933 0 56.737185 46.1593 102.896485 102.893037 102.896485s102.896485-46.1593 102.896485-102.896485c-0.003448-56.740633-46.162747-102.899933-102.896485-102.899933z m0 136.367839c-18.456135 0-33.471354-15.011771-33.471354-33.471354s15.015219-33.474801 33.471354-33.474801c18.459582 0 33.471354 15.015219 33.471353 33.474801 0 18.459582-15.015219 33.471354-33.471353 33.471354zM625.639865 522.74338c-56.737185 0-102.896485 46.1593-102.896485 102.899933 0 56.737185 46.1593 102.896485 102.896485 102.896485 56.737185 0 102.896485-46.1593 102.896485-102.896485 0-56.740633-46.1593-102.899933-102.896485-102.899933z m0 136.367839c-18.456135 0-33.474801-15.011771-33.474801-33.471354s15.018667-33.474801 33.474801-33.474801c18.459582 0 33.471354 15.015219 33.471354 33.474801 0 18.459582-15.011771 33.471354-33.471354 33.471354z" fill="" p-id="11976"></path></svg>