<?xml version="1.0" standalone="no"?><!DOCTYPE svg PUBLIC "-//W3C//DTD SVG 1.1//EN" "http://www.w3.org/Graphics/SVG/1.1/DTD/svg11.dtd"><svg t="1576035507386" class="icon" viewBox="0 0 1024 1024" version="1.1" xmlns="http://www.w3.org/2000/svg" p-id="3786" xmlns:xlink="http://www.w3.org/1999/xlink" width="200" height="200"><defs><style type="text/css"></style></defs><path d="M1024 592.448l0-160.928-159.136-15.904c-8.192-30.048-20.096-58.56-35.2-84.992l104.608-127.84-113.056-113.056-127.84 104.608c-26.432-15.136-54.944-27.04-84.992-35.2l-15.904-159.136-160.928 0-15.904 159.136c-30.048 8.192-58.56 20.096-84.992 35.2l-127.84-104.608-113.056 113.056 104.608 127.84c-15.136 26.432-27.04 54.944-35.2 84.992l-159.136 15.904 0 160.928 159.136 15.904c8.192 30.048 20.096 58.56 35.2 84.992l-104.608 127.84 113.056 113.056 127.84-104.608c26.432 15.136 54.944 27.04 84.992 35.2l15.904 159.136 160.928 0 15.904-159.136c30.048-8.192 58.56-20.096 84.992-35.2l127.84 104.608 113.056-113.056-104.608-127.84c15.136-26.432 27.04-54.944 35.2-84.992l159.136-15.904zM704 576l-128 128-128 0-128-128 0-128 128-128 128 0 128 128 0 128z" p-id="3787"></path></svg>