<?xml version="1.0" standalone="no"?><!DOCTYPE svg PUBLIC "-//W3C//DTD SVG 1.1//EN" "http://www.w3.org/Graphics/SVG/1.1/DTD/svg11.dtd"><svg t="1576037192585" class="icon" viewBox="0 0 1024 1024" version="1.1" xmlns="http://www.w3.org/2000/svg" p-id="16302" xmlns:xlink="http://www.w3.org/1999/xlink" width="200" height="200"><defs><style type="text/css"></style></defs><path d="M838.726831 253.67863l-21.166065 21.166065c-9.682523 9.638521-22.564925 14.985296-36.236296 14.985296-28.217668 0-51.224662-22.961968-51.224662-51.224662 0-13.671371 5.344728-26.553773 15.030321-36.239366l21.12104-21.122063L646.097626 61.048401 62.824349 644.325771l120.195499 120.194476 21.12104-21.162995c9.682523-9.685593 22.520923-15.030321 36.237319-15.030321 28.264741 0 51.227732 23.003923 51.227732 51.222615 0 13.715373-5.349845 26.553773-14.988366 36.239366l-21.210068 21.162995L376.917954 957.105451l581.960375-583.276347L838.726831 253.67863zM712.177624 487.277946l-42.330084 42.284035 24.366967 24.362874-0.701988 0.660032L375.649054 872.489284l-38.47222-38.428218c9.28855-16.434298 14.282285-35.099403 14.282285-54.512544 0-61.214177-49.864688-111.036909-111.080911-111.036909-19.410072 0-38.077224 4.951779-54.509475 14.243399l-38.431288-38.431288 317.952492-317.906443 0.61296-0.700965 24.361851 24.361851 42.331108-42.284035-24.361851-24.364921 137.76362-137.76669 38.431288 38.384216c-9.290597 16.4783-14.240329 35.143405-14.240329 54.555523 0 61.214177 49.820686 111.038956 111.036909 111.038956 19.457144 0 38.078247-4.953825 54.512544-14.242376l38.473243 38.428218L736.540498 511.598864 712.177624 487.277946z" p-id="16303"></path><path d="M646.145677 507.177887l-44.869908-44.869908 42.285281-42.285281 44.869908 44.869908-42.285281 42.285281Z" p-id="16304"></path><path d="M526.468558 387.54632l42.327972-42.327972 44.869908 44.869908-42.327972 42.327972-44.869908-44.869908Z" p-id="16305"></path></svg>