<?xml version="1.0" standalone="no"?><!DOCTYPE svg PUBLIC "-//W3C//DTD SVG 1.1//EN" "http://www.w3.org/Graphics/SVG/1.1/DTD/svg11.dtd"><svg t="1576037699900" class="icon" viewBox="0 0 1060 1024" version="1.1" xmlns="http://www.w3.org/2000/svg" p-id="18217" xmlns:xlink="http://www.w3.org/1999/xlink" width="207.03125" height="200"><defs><style type="text/css"></style></defs><path d="M404.20571469 314.20571469a75.6 75.6 0 1 1 0 151.2 75.6 75.6 0 0 1 0-151.2z m0 44.57142844a31.02857156 31.02857156 0 1 0 0 62.05714218 31.02857156 31.02857156 0 0 0 0-62.05714218zM644.17142844 542.72a75.6 75.6 0 1 1 0 151.2 75.6 75.6 0 0 1 0-151.2z m0 44.57142844a31.02857156 31.02857156 0 1 0 0 62.05714312 31.02857156 31.02857156 0 0 0 0-62.05714312zM620.58285687 314.65142844a22.28571469 22.28571469 0 1 1 37.40571469 24.20571469l-228.48 353.34857156a22.28571469 22.28571469 0 1 1-37.40571469-24.20571469l228.48-353.34857156z" p-id="18218"></path><path d="M110 618.69714313c-5.00571469 1.06285689-6.96 2.09142844-6.96 2.05714218-1.02857156 1.71428531-2.16 6.92571469-2.16 14.84571469v225.32571469c0 35.86285689 29.65714313 65.07428531 66.44571469 65.07428531h545.45142844a22.28571469 22.28571469 0 1 1 0 44.57142844H167.25714313c-61.2 0-111.01714313-49.02857156-111.01714313-109.64571375v-225.32571469c0-15.63428531 2.81142844-28.76571469 8.88-38.29714313 7.47428531-12.37714311 20.70857156-19.40571469 38.12571469-22.69714218l4.11428531-0.41142938c0.58285687 0 3.66857156-0.85714313 8.19428531-2.74285687a65.14285687 65.14285687 0 0 0 30.78857156-32.88c3.90857156-8.22857156 6-18.85714313 6-32.12571375 0-19.71428531-4.76571469-33.70285687-13.88571374-43.33714313-10.18285687-10.76571469-19.98857156-16.38857156-30.48-17.76-15.22285687-2.81142844-27.66857156-8.05714311-36.82285782-16.45714312-10.52571469-9.94285689-14.98285687-24.06857156-14.98285687-41.55428531V145.00571469C56.20571469 84.45714313 105.92 35.42857156 167.15428531 35.42857156h545.58857156a22.28571469 22.28571469 0 1 1 0 44.57142844H167.12c-36.68571469 0-66.34285687 29.21142844-66.34285687 65.00571469v242.33142844c0 6.37714313 0.82285689 8.98285687 0.78857156 8.98285687 1.85142844 1.68 6.82285687 3.77142844 13.30285687 5.00571469 20.4 2.60571469 39.22285687 13.40571469 56.02285688 31.16571375 17.55428531 18.58285689 26.05714313 43.54285687 26.05714312 73.95428625 0 19.47428531-3.36 36.54857156-10.08 50.81142844a109.13142844 109.13142844 0 0 1-53.07428625 54.85714218c-9.29142844 3.94285687-16.66285687 6.17142844-23.79428531 6.58285782z" p-id="18219"></path><path d="M913.69142844 611.73714313a109.06285687 109.06285687 0 0 1-28.04571375-19.74857157 108.54857156 108.54857156 0 0 1-24-34.42285687c-6.85714313-14.57142844-10.18285687-31.64571469-10.18285782-51.08571469 0-30.41142844 8.46857156-55.40571469 26.05714313-74.02285687 16.8-17.72571469 35.58857156-28.52571469 54.78857156-30.96 7.68-1.40571469 12.65142844-3.49714313 14.19428531-4.90285782 0.27428531-0.27428531 1.13142844-2.88 1.13142844-9.25714218V145.00571469c0-35.79428531-29.65714313-65.00571469-66.37714218-65.00571469h-237.08571469a22.28571469 22.28571469 0 1 1 0-44.57142844h237.08571469c61.16571469 0 110.94857156 49.02857156 110.94857156 109.57714313v242.33142842c0 17.48571469-4.49142844 31.61142844-15.32571469 41.82857158-8.84571469 8.12571469-21.29142844 13.37142844-37.71428531 16.35428531-9.29142844 1.2-19.09714311 6.85714313-29.28 17.58857156-9.12 9.63428531-13.85142844 23.65714313-13.85142938 43.33714313 0 13.26857156 2.05714313 23.89714311 6.10285782 32.46857062a65.65714313 65.65714313 0 0 0 29.76 32.16c5.41714313 2.26285689 8.50285687 3.12 9.08571374 3.12l4.11428626 0.41142938c17.41714311 3.29142844 30.65142844 10.32 37.85142843 22.28571375 6.34285687 9.94285689 9.15428531 23.07428531 9.15428531 38.74285687v225.29142938c0 60.65142844-49.81714313 109.64571469-111.01714218 109.64571375h-236.91428625a22.28571469 22.28571469 0 1 1 0-44.57142844h236.91428625c36.75428531 0 66.44571469-29.21142844 66.44571375-65.07428531v-225.32571469c0-7.92-1.13142844-13.13142844-2.46857157-15.25714313 0.24 0.41142844-1.71428531-0.58285687-6.72-1.64571376-7.09714313-0.44571469-14.57142844-2.67428531-24.65142843-6.96z" p-id="18220"></path></svg>