<?xml version="1.0" standalone="no"?><!DOCTYPE svg PUBLIC "-//W3C//DTD SVG 1.1//EN" "http://www.w3.org/Graphics/SVG/1.1/DTD/svg11.dtd"><svg t="1576142852934" class="icon" viewBox="0 0 1024 1024" version="1.1" xmlns="http://www.w3.org/2000/svg" p-id="2148" xmlns:xlink="http://www.w3.org/1999/xlink" width="200" height="200"><defs><style type="text/css"></style></defs><path d="M96.50176 519.31136c0.14336-4.34176 1.45408-8.6016 3.8912-12.24704l131.21536-196.89472c4.32128-6.41024 11.63264-10.30144 19.39456-10.30144H428.35968c12.86144 0 23.28576 10.4448 23.28576 23.30624v379.61728c0 12.84096-10.4448 23.28576-23.32672 23.28576h-47.69792a106.53696 106.53696 0 0 1-213.13536 0h-47.7184a23.3472 23.3472 0 0 1-23.30624-23.30624V519.9872l0.04096-0.67584z m248.56576-6.3488v-142.09024H255.1808l-94.74048 142.09024h184.60672zM274.0224 779.30496a53.32992 53.32992 0 0 0 53.28896-53.248 53.3504 53.3504 0 0 0-53.28896-53.28896 53.3504 53.3504 0 0 0-53.248 53.26848 53.32992 53.32992 0 0 0 53.248 53.26848z m244.03968-550.5024h399.85152c17.08032 0 30.9248 13.84448 30.9248 30.9248V695.0912a30.9248 30.9248 0 0 1-30.9248 30.94528H842.3424a106.53696 106.53696 0 0 1-106.55744 106.53696 106.53696 106.53696 0 0 1-106.55744-106.53696h-111.12448a30.9248 30.9248 0 0 1-30.9248-30.9248v-435.4048c0-17.05984 13.824-30.9248 30.9248-30.9248z m217.7024 550.5024a53.32992 53.32992 0 0 0 53.248-53.248 53.3504 53.3504 0 0 0-53.248-53.28896 53.37088 53.37088 0 0 0-53.30944 53.26848 53.32992 53.32992 0 0 0 53.28896 53.26848z" p-id="2149"></path></svg>