<?xml version="1.0" standalone="no"?><!DOCTYPE svg PUBLIC "-//W3C//DTD SVG 1.1//EN" "http://www.w3.org/Graphics/SVG/1.1/DTD/svg11.dtd"><svg t="1576035716039" class="icon" viewBox="0 0 1024 1024" version="1.1" xmlns="http://www.w3.org/2000/svg" p-id="5103" xmlns:xlink="http://www.w3.org/1999/xlink" width="200" height="200"><defs><style type="text/css"></style></defs><path d="M381.952 539.136h-31.744v-16.384h31.744c14.848 0 26.112-8.704 26.112-19.968s-11.776-19.968-26.112-19.968h-17.408l38.4-66.048c4.096-6.656 5.12-14.848 3.584-21.504-1.024-5.12-4.608-9.728-9.216-12.288-10.24-5.632-25.088 0-31.744 12.288L338.432 445.44c-9.728 17.92-10.24 19.456-10.24 19.456l-0.512 1.024c-12.8-25.088-36.352-68.608-37.376-71.168-6.656-12.288-22.016-17.92-32.256-11.776-4.608 3.072-8.192 7.68-9.728 12.8-2.048 6.656-0.512 14.336 3.072 20.992l35.84 61.952 2.048 3.584h-18.944c-14.848 0-26.112 8.704-26.112 19.968s11.776 19.968 26.112 19.968h33.792v16.384h-33.792c-14.848 0-26.112 8.704-26.112 20.48 0 10.752 10.24 18.944 24.576 19.968h35.84v21.504c0 14.336 10.24 26.112 23.04 26.112s23.04-11.264 23.04-25.6V578.56h36.864c12.8-2.048 20.992-9.728 20.992-19.456-0.512-11.264-11.776-19.968-26.624-19.968z" fill="" p-id="5104"></path><path d="M817.152 354.304c82.944 0 150.528-67.584 150.528-150.528s-67.584-150.528-150.528-150.528-150.528 67.584-150.528 150.528c0 13.312 1.536 25.6 4.608 37.888l-138.752 92.16c-5.632-6.656-11.264-13.312-17.92-19.456-50.688-50.688-117.76-78.336-189.44-78.336s-138.752 27.648-189.44 78.336c-50.688 50.688-78.336 117.76-78.336 189.44s27.648 138.752 78.336 189.44c50.688 50.688 117.76 78.336 189.44 78.336 71.168 0 138.24-27.648 188.928-77.824l146.944 102.4c-6.144 14.336-9.216 30.72-9.216 47.104 0 23.04 6.144 44.544 17.408 62.976h-139.776c-16.384 0-30.208 13.312-30.208 30.208 0 16.384 13.312 30.208 30.208 30.208h247.296c67.584-1.024 121.856-55.808 121.856-123.392 0-68.096-55.296-123.392-123.392-123.392-29.696 0-56.832 10.24-77.824 27.648l-145.408-101.376c26.624-42.496 40.96-91.648 40.96-142.848 0-41.984-9.728-82.944-27.648-119.296l133.12-88.576c28.16 35.84 70.656 58.88 118.784 58.88z m0-248.832c54.272 0 98.304 44.032 98.304 98.304S871.424 302.08 817.152 302.08s-98.304-44.032-98.304-98.304 44.032-98.304 98.304-98.304z m-41.472 674.816c34.816 0 62.976 28.16 62.976 62.976s-28.16 62.976-62.976 62.976-62.976-28.16-62.976-62.976 28.16-62.976 62.976-62.976zM326.144 711.68c-114.688 0-207.872-93.184-207.872-207.872 0-114.688 93.184-207.872 207.872-207.872s207.872 93.184 207.872 207.872C533.504 618.496 440.32 711.68 326.144 711.68z" fill="" p-id="5105"></path></svg>