<?xml version="1.0" standalone="no"?><!DOCTYPE svg PUBLIC "-//W3C//DTD SVG 1.1//EN" "http://www.w3.org/Graphics/SVG/1.1/DTD/svg11.dtd"><svg t="1599047056839" class="icon" viewBox="0 0 1024 1024" version="1.1" xmlns="http://www.w3.org/2000/svg" p-id="1973" xmlns:xlink="http://www.w3.org/1999/xlink" width="200" height="200"><defs><style type="text/css"></style></defs><path d="M196.736 325.077333v534.912h640.554667V325.077333H196.693333z m-11.733333-59.733333h664.021333c26.453333 0 48 21.504 48 48v558.378667c0 26.453333-21.504 48-48 48H185.002667a48 48 0 0 1-48-48V313.344c0-26.496 21.504-48 48-48z" p-id="1974"></path><path d="M752.213333 312.32h-59.733333c0-94.634667-77.312-171.434667-172.8-171.434667-95.488 0-172.8 76.8-172.8 171.477334h-59.733333c0-127.744 104.149333-231.253333 232.533333-231.253334 128.426667 0 232.533333 103.509333 232.533333 231.253334zM267.52 650.88a29.866667 29.866667 0 1 1 45.994667-38.144c36.096 43.52 115.029333 73.386667 204.202666 73.386667 89.301333 0 168.32-29.952 204.373334-73.514667a29.866667 29.866667 0 1 1 46.037333 38.058667c-48.64 58.837333-144.682667 95.146667-250.410667 95.146666-105.557333 0-201.472-36.266667-250.197333-94.933333z" p-id="1975"></path></svg>