<?xml version="1.0" standalone="no"?><!DOCTYPE svg PUBLIC "-//W3C//DTD SVG 1.1//EN" "http://www.w3.org/Graphics/SVG/1.1/DTD/svg11.dtd"><svg t="1576038625294" class="icon" viewBox="0 0 1024 1024" version="1.1" xmlns="http://www.w3.org/2000/svg" p-id="20327" xmlns:xlink="http://www.w3.org/1999/xlink" width="200" height="200"><defs><style type="text/css"></style></defs><path d="M928 588.845c20.986 36.219 33 78.284 33 123.155 0 135.862-110.138 246-246 246-43.426 0-84.224-11.252-119.637-31H123.43C90.607 927 64 898.346 64 863V223c0-35.346 26.607-64 59.429-64H250v-42c0-12.15 9.85-22 22-22s22 9.85 22 22v42h180v-42c0-12.15 9.85-22 22-22s22 9.85 22 22v42h180v-42c0-12.15 9.85-22 22-22s22 9.85 22 22v42h126.571C901.393 159 928 187.654 928 223v365.845z m-44-55.605V395H108v468c0 11.744 7.666 20 15.429 20h414.723C495.342 838.735 469 778.444 469 712c0-135.862 110.138-246 246-246 65.448 0 124.927 25.559 169 67.24zM742 203v30c0 12.15-9.85 22-22 22s-22-9.85-22-22v-30H518v30c0 12.15-9.85 22-22 22s-22-9.85-22-22v-30H294v30c0 12.15-9.85 22-22 22s-22-9.85-22-22v-30H123.429c-7.763 0-15.429 8.256-15.429 20v128h776V223c0-11.744-7.666-20-15.429-20H742z m-27 711c111.562 0 202-90.438 202-202s-90.438-202-202-202-202 90.438-202 202 90.438 202 202 202z m15-192h106c12.15 0 22 9.85 22 22s-9.85 22-22 22H708c-12.15 0-22-9.85-22-22V616c0-12.15 9.85-22 22-22s22 9.85 22 22v106z" p-id="20328" fill="#1296db"></path></svg>