<?xml version="1.0" standalone="no"?><!DOCTYPE svg PUBLIC "-//W3C//DTD SVG 1.1//EN" "http://www.w3.org/Graphics/SVG/1.1/DTD/svg11.dtd"><svg t="1576037459149" class="icon" viewBox="0 0 1025 1024" version="1.1" xmlns="http://www.w3.org/2000/svg" p-id="17474" xmlns:xlink="http://www.w3.org/1999/xlink" width="200.1953125" height="200"><defs><style type="text/css"></style></defs><path d="M146.336 749.728l0 109.728q0 7.424-5.44 12.864t-12.864 5.44l-109.728 0q-7.424 0-12.864-5.44t-5.44-12.864l0-109.728q0-7.424 5.44-12.864t12.864-5.44l109.728 0q7.424 0 12.864 5.44t5.44 12.864zM146.336 530.272l0 109.728q0 7.424-5.44 12.864t-12.864 5.44l-109.728 0q-7.424 0-12.864-5.44t-5.44-12.864l0-109.728q0-7.424 5.44-12.864t12.864-5.44l109.728 0q7.424 0 12.864 5.44t5.44 12.864zM146.336 310.848l0 109.728q0 7.424-5.44 12.864t-12.864 5.44l-109.728 0q-7.424 0-12.864-5.44t-5.44-12.864l0-109.728q0-7.424 5.44-12.864t12.864-5.44l109.728 0q7.424 0 12.864 5.44t5.44 12.864zM1024.064 749.728l0 109.728q0 7.424-5.44 12.864t-12.864 5.44l-768 0q-7.424 0-12.864-5.44t-5.44-12.864l0-109.728q0-7.424 5.44-12.864t12.864-5.44l768 0q7.424 0 12.864 5.44t5.44 12.864zM146.336 91.424l0 109.728q0 7.424-5.44 12.864t-12.864 5.44l-109.728 0q-7.424 0-12.864-5.44t-5.44-12.864l0-109.728q0-7.424 5.44-12.864t12.864-5.44l109.728 0q7.424 0 12.864 5.44t5.44 12.864zM1024.064 530.272l0 109.728q0 7.424-5.44 12.864t-12.864 5.44l-768 0q-7.424 0-12.864-5.44t-5.44-12.864l0-109.728q0-7.424 5.44-12.864t12.864-5.44l768 0q7.424 0 12.864 5.44t5.44 12.864zM1024.064 310.848l0 109.728q0 7.424-5.44 12.864t-12.864 5.44l-768 0q-7.424 0-12.864-5.44t-5.44-12.864l0-109.728q0-7.424 5.44-12.864t12.864-5.44l768 0q7.424 0 12.864 5.44t5.44 12.864zM1024.064 91.424l0 109.728q0 7.424-5.44 12.864t-12.864 5.44l-768 0q-7.424 0-12.864-5.44t-5.44-12.864l0-109.728q0-7.424 5.44-12.864t12.864-5.44l768 0q7.424 0 12.864 5.44t5.44 12.864z" p-id="17475"></path></svg>