<?xml version="1.0" standalone="no"?><!DOCTYPE svg PUBLIC "-//W3C//DTD SVG 1.1//EN" "http://www.w3.org/Graphics/SVG/1.1/DTD/svg11.dtd"><svg t="1599046884140" class="icon" viewBox="0 0 1024 1024" version="1.1" xmlns="http://www.w3.org/2000/svg" p-id="1226" xmlns:xlink="http://www.w3.org/1999/xlink" width="200" height="200"><defs><style type="text/css"></style></defs><path d="M909.312 481.28c-26.624-12.288-59.392-8.192-83.968 10.24l-49.152 36.864v-53.248c0-73.728-59.392-133.12-133.12-133.12H208.896c-73.728 0-133.12 59.392-133.12 133.12v319.488c0 73.728 59.392 133.12 133.12 133.12h432.128c73.728 0 133.12-59.392 133.12-133.12v-6.144l49.152 36.864c26.624 20.48 57.344 24.576 83.968 10.24 24.576-12.288 38.912-36.864 38.912-67.584V548.864c2.048-30.72-12.288-55.296-36.864-67.584z m-2.048 290.816c0 14.336-6.144 24.576-16.384 30.72-12.288 6.144-28.672 4.096-40.96-6.144l-81.92-63.488c-6.144-4.096-14.336-6.144-22.528-2.048-6.144 4.096-12.288 10.24-12.288 18.432v47.104c0 51.2-40.96 92.16-92.16 92.16H208.896c-51.2 0-92.16-40.96-92.16-92.16V477.184c0-51.2 40.96-92.16 92.16-92.16h432.128c51.2 0 92.16 40.96 92.16 92.16v94.208c0 8.192 4.096 14.336 12.288 18.432 6.144 4.096 14.336 2.048 22.528-2.048l81.92-63.488c12.288-10.24 28.672-12.288 40.96-6.144 10.24 6.144 16.384 16.384 16.384 30.72v223.232zM309.248 313.344c45.056 0 79.872-34.816 79.872-79.872s-36.864-79.872-79.872-79.872-79.872 34.816-79.872 79.872 36.864 79.872 79.872 79.872z m0-118.784c22.528 0 38.912 16.384 38.912 38.912s-18.432 38.912-38.912 38.912-38.912-16.384-38.912-38.912 18.432-38.912 38.912-38.912z" p-id="1227"></path><path d="M249.856 446.464c-43.008 0-77.824 34.816-77.824 75.776 0 43.008 34.816 75.776 77.824 75.776s77.824-34.816 77.824-75.776c0-43.008-34.816-75.776-77.824-75.776z m0 110.592c-20.48 0-36.864-16.384-36.864-34.816s16.384-34.816 36.864-34.816 36.864 16.384 36.864 34.816-16.384 34.816-36.864 34.816zM583.68 315.392c61.44 0 110.592-49.152 110.592-110.592s-49.152-110.592-110.592-110.592c-61.44 0-110.592 49.152-110.592 110.592s49.152 110.592 110.592 110.592z m0-178.176c38.912 0 69.632 30.72 69.632 69.632s-30.72 69.632-69.632 69.632-69.632-30.72-69.632-69.632 30.72-69.632 69.632-69.632z" p-id="1228"></path></svg>