<?xml version="1.0" standalone="no"?><!DOCTYPE svg PUBLIC "-//W3C//DTD SVG 1.1//EN" "http://www.w3.org/Graphics/SVG/1.1/DTD/svg11.dtd"><svg t="1576038706809" class="icon" viewBox="0 0 1024 1024" version="1.1" xmlns="http://www.w3.org/2000/svg" p-id="21024" xmlns:xlink="http://www.w3.org/1999/xlink" width="200" height="200"><defs><style type="text/css"></style></defs><path d="M866.461538 137.846154h-98.461538V98.461538c0-31.507692-25.6-59.076923-59.076923-59.076923-31.507692 0-59.076923 25.6-59.076923 59.076923v39.384616H374.153846V98.461538c0-31.507692-25.6-59.076923-59.076923-59.076923-31.507692 0-59.076923 25.6-59.076923 59.076923v39.384616H157.538462c-43.323077 0-78.769231 35.446154-78.769231 78.769231v49.230769c0 15.753846 13.784615 29.538462 29.538461 29.538461h807.384616c15.753846 0 29.538462-13.784615 29.538461-29.538461V216.615385c0-43.323077-35.446154-78.769231-78.769231-78.769231z m49.23077 256h-807.384616c-15.753846 0-29.538462 13.784615-29.538461 29.538461V905.846154c0 43.323077 35.446154 78.769231 78.769231 78.769231h708.923076c43.323077 0 78.769231-35.446154 78.769231-78.769231V423.384615c0-15.753846-13.784615-29.538462-29.538461-29.538461zM415.507692 866.461538c-47.261538 0-100.430769-17.723077-116.184615-43.323076-1.969231-3.938462-3.938462-7.876923-3.938462-13.784616 0-17.723077 15.753846-31.507692 31.507693-31.507692 5.907692 0 11.815385 1.969231 17.723077 3.938461 21.661538 11.815385 47.261538 19.692308 68.923077 19.692308 39.384615 0 61.046154-17.723077 61.046153-41.353846 0-25.6-19.692308-37.415385-64.984615-37.415385-25.6 3.938462-43.323077-7.876923-43.323077-31.507692 0-17.723077 11.815385-29.538462 31.507692-29.538462 41.353846 1.969231 70.892308-7.876923 70.892308-35.446153 0-25.6-25.6-37.415385-59.076923-37.415385-21.661538 0-43.323077 5.907692-63.015385 17.723077-3.938462 3.938462-9.846154 3.938462-15.753846 3.938461-15.753846 0-29.538462-11.815385-29.538461-29.538461 0-7.876923 3.938462-15.753846 9.846154-21.661539 25.6-21.661538 61.046154-35.446154 106.338461-35.446153 74.830769 0 122.092308 33.476923 122.092308 88.615384 0 41.353846-35.446154 66.953846-70.892308 74.830769 33.476923 3.938462 74.830769 29.538462 74.830769 76.8C541.538462 827.076923 492.307692 866.461538 415.507692 866.461538zM728.615385 829.046154c0 17.723077-9.846154 37.415385-29.538462 37.415384-17.723077 0-29.538462-17.723077-29.538461-37.415384V626.215385l-41.353847 37.415384c-5.907692 5.907692-13.784615 7.876923-21.661538 7.876923-15.753846 0-29.538462-11.815385-29.538462-29.538461 0-7.876923 1.969231-13.784615 7.876923-19.692308l74.83077-74.830769c7.876923-7.876923 17.723077-13.784615 29.538461-13.784616 21.661538 0 39.384615 19.692308 39.384616 41.353847v254.030769z" p-id="21025" fill="#1296db"></path></svg>