<?xml version="1.0" standalone="no"?><!DOCTYPE svg PUBLIC "-//W3C//DTD SVG 1.1//EN" "http://www.w3.org/Graphics/SVG/1.1/DTD/svg11.dtd"><svg t="1576036479455" class="icon" viewBox="0 0 1024 1024" version="1.1" xmlns="http://www.w3.org/2000/svg" p-id="10110" xmlns:xlink="http://www.w3.org/1999/xlink" width="200" height="200"><defs><style type="text/css"></style></defs><path d="M334.378092 258.548544c0 18.650779-15.096836 33.771151-33.751708 33.771151-18.629289 0-33.750685-15.120372-33.750685-33.771151 0-18.612916 15.116279-33.734312 33.750685-33.734312C319.277162 224.806046 334.378092 239.935628 334.378092 258.548544L334.378092 258.548544zM334.378092 258.548544" p-id="10111"></path><path d="M334.378092 382.324592c0 18.664082-15.096836 33.730219-33.751708 33.730219-18.629289 0-33.750685-15.077394-33.750685-33.730219 0-18.634406 15.116279-33.730219 33.750685-33.730219C319.277162 348.595396 334.378092 363.703489 334.378092 382.324592L334.378092 382.324592zM334.378092 382.324592" p-id="10112"></path><path d="M266.874675 506.114966c0 8.837272 3.63683 17.618263 9.887184 23.863501 6.246261 6.249331 15.027252 9.887184 23.863501 9.887184s17.619286-3.637854 23.868617-9.887184c6.246261-6.246261 9.883091-15.027252 9.883091-23.863501s-3.637854-17.619286-9.883091-23.868617c-6.249331-6.245238-15.031345-9.882068-23.868617-9.882068s-17.618263 3.637854-23.863501 9.882068C270.511505 488.49568 266.874675 497.277694 266.874675 506.114966L266.874675 506.114966zM266.874675 506.114966" p-id="10113"></path><path d="M639.596562 289.042045 413.136853 289.042045c-16.807804 0-30.463826-13.639648-30.463826-30.493501 0-16.817014 13.656021-30.455639 30.463826-30.455639L639.600655 228.092905c16.833387 0 30.464849 13.638625 30.464849 30.455639C670.07369 275.402397 656.447345 289.042045 639.596562 289.042045L639.596562 289.042045zM639.596562 289.042045" p-id="10114"></path><path d="M639.596562 412.83242 413.136853 412.83242c-16.807804 0-30.463826-13.661138-30.463826-30.494525 0-16.83748 13.656021-30.498618 30.463826-30.498618L639.600655 351.839277c16.833387 0 30.464849 13.661138 30.464849 30.498618C670.065504 399.171282 656.447345 412.83242 639.596562 412.83242L639.596562 412.83242zM639.596562 412.83242" p-id="10115"></path><path d="M639.596562 536.600281 413.136853 536.600281c-16.807804 0-30.463826-13.662161-30.463826-30.476105 0-16.867156 13.656021-30.494525 30.463826-30.494525L639.600655 475.629651c16.833387 0 30.464849 13.626345 30.464849 30.494525C670.07369 522.939143 656.447345 536.600281 639.596562 536.600281L639.596562 536.600281zM639.596562 536.600281" p-id="10116"></path><path d="M266.874675 622.198821c0 8.837272 3.63683 17.619286 9.887184 23.863501 6.246261 6.250354 15.027252 9.887184 23.863501 9.887184s17.619286-3.63683 23.868617-9.887184c6.246261-6.245238 9.883091-15.027252 9.883091-23.863501s-3.637854-17.618263-9.883091-23.867594c-6.249331-6.246261-15.031345-9.883091-23.868617-9.883091s-17.618263 3.637854-23.863501 9.883091C270.511505 604.580558 266.874675 613.361549 266.874675 622.198821L266.874675 622.198821zM266.874675 622.198821" p-id="10117"></path><path d="M639.596562 652.692323 413.136853 652.692323c-16.807804 0-30.463826-13.648858-30.463826-30.494525 0-16.836457 13.656021-30.467919 30.463826-30.467919L639.600655 591.729879c16.833387 0 30.464849 13.631462 30.464849 30.467919C670.07369 639.043465 656.447345 652.692323 639.596562 652.692323L639.596562 652.692323zM639.596562 652.692323" p-id="10118"></path><path d="M958.70846 242.496963c0-110.11184-40.662095-150.770865-90.849124-150.770865L249.948167 91.726098c-51.609425 0-93.628424 41.98216-93.628424 93.64275l0 588.641541-0.180102 0L65.290517 774.010389c0 137.476071 50.737568 158.26249 113.38642 158.26249l71.27123 0 398.314775 0 72.437799 0c51.65138 0 93.649913-41.98216 93.649913-93.637634L814.350654 242.496963 958.70846 242.496963 958.70846 242.496963zM776.877181 838.622966c0 30.972409-25.191752 56.175417-56.175417 56.175417-50.149167 0-75.818803-10.701736-75.818803-120.809483l-130.829697 0L193.793216 773.9889 193.793216 185.355545c0-30.972409 25.157983-56.175417 56.145741-56.175417l551.656185 0c-14.852266 23.539112-24.103978 59.163471-24.508183 110.008486-0.119727 1.144056-0.217964 2.284019-0.217964 3.308349L776.868995 838.622966 776.877181 838.622966 776.877181 838.622966zM776.877181 838.622966" p-id="10119"></path></svg>