<svg t="1585887096878" class="icon" viewBox="0 0 1024 1024" version="1.1" xmlns="http://www.w3.org/2000/svg" p-id="2475" width="200" height="200"><path d="M749.010 972.915h-474.022c-79.501 0-144.179-64.678-144.179-144.179v-612.227c0-79.501 64.678-144.179 144.179-144.179h61.891c24.129 0 43.691 19.562 43.691 43.691 0 24.13-19.562 43.691-43.691 43.691h-61.891c-31.317 0-56.798 25.479-56.798 56.798v612.227c0 31.318 25.481 56.798 56.798 56.798h474.022c31.318 0 56.798-25.479 56.798-56.798v-612.227c0-31.318-25.479-56.798-56.798-56.798h-61.891c-24.129 0-43.691-19.561-43.691-43.691 0-24.129 19.562-43.691 43.691-43.691h61.891c79.501 0 144.179 64.678 144.179 144.179v612.227c0 79.501-64.678 144.179-144.179 144.179z" fill="#2c2c2c" p-id="2476"></path><path d="M564.060 181.556h-104.123c-36.195 0-65.536-29.341-65.536-65.536s29.341-65.536 65.536-65.536h104.123c36.195 0 65.536 29.341 65.536 65.536s-29.341 65.536-65.536 65.536zM679.372 402.192h-334.743c-24.129 0-43.691-19.562-43.691-43.691s19.562-43.691 43.691-43.691h334.743c24.129 0 43.691 19.562 43.691 43.691s-19.562 43.691-43.691 43.691zM679.372 573.669h-334.743c-24.129 0-43.691-19.562-43.691-43.691s19.562-43.691 43.691-43.691h334.743c24.129 0 43.691 19.562 43.691 43.691s-19.562 43.691-43.691 43.691zM679.372 745.147h-334.743c-24.129 0-43.691-19.562-43.691-43.691s19.562-43.691 43.691-43.691h334.743c24.129 0 43.691 19.562 43.691 43.691s-19.562 43.691-43.691 43.691z"></path></svg>
