<?xml version="1.0" standalone="no"?><!DOCTYPE svg PUBLIC "-//W3C//DTD SVG 1.1//EN" "http://www.w3.org/Graphics/SVG/1.1/DTD/svg11.dtd"><svg t="1576036748237" class="icon" viewBox="0 0 1024 1024" version="1.1" xmlns="http://www.w3.org/2000/svg" p-id="13888" xmlns:xlink="http://www.w3.org/1999/xlink" width="200" height="200"><defs><style type="text/css"></style></defs><path d="M512 483.5328c-234.0864 0-426.7008-82.5344-426.7008-199.0656C85.2992 167.936 277.9136 85.2992 512 85.2992S938.7008 167.936 938.7008 284.4672 746.0864 483.5328 512 483.5328z m0-56.832c205.824 0 369.7664-70.2464 369.7664-142.2336 0-71.9872-163.9424-142.2336-369.7664-142.2336s-369.7664 70.2464-369.7664 142.2336C142.2336 356.352 306.176 426.7008 512 426.7008z" fill="#323233" p-id="13889"></path><path d="M204.288 371.9168l24.3712 51.4048c-56.832 26.9312-86.4256 59.2896-86.4256 88.6784 0 71.9872 163.9424 142.2336 369.7664 142.2336S881.7664 583.9872 881.7664 512c0-31.1296-33.1776-65.4336-95.8464-92.9792l22.9376-52.0192c81.1008 35.7376 129.8432 86.016 129.8432 145.1008 0 116.5312-192.6144 199.0656-426.7008 199.0656S85.2992 628.5312 85.2992 512c0-56.2176 44.4416-104.7552 118.9888-140.0832z" fill="#323233" p-id="13890"></path><path d="M204.8 599.2448l24.2688 51.4048c-57.1392 27.0336-86.8352 59.392-86.8352 88.8832 0 71.9872 163.9424 142.2336 369.7664 142.2336s369.7664-70.2464 369.7664-142.2336c0-30.8224-32.5632-64.7168-94.208-92.2624l23.1424-51.9168c79.9744 35.6352 127.8976 85.7088 127.8976 144.1792 0 116.5312-192.6144 199.0656-426.7008 199.0656S85.2992 856.064 85.2992 739.5328c0-56.4224 44.6464-104.96 119.5008-140.288z" fill="#323233" p-id="13891"></path></svg>