<?xml version="1.0" standalone="no"?><!DOCTYPE svg PUBLIC "-//W3C//DTD SVG 1.1//EN" "http://www.w3.org/Graphics/SVG/1.1/DTD/svg11.dtd"><svg t="1583159767474" class="icon" viewBox="0 0 1024 1024" version="1.1" xmlns="http://www.w3.org/2000/svg" p-id="1574" xmlns:xlink="http://www.w3.org/1999/xlink" width="200" height="200"><defs><style type="text/css"></style></defs><path d="M954.112 343.87v466.856c0 21.78 0.717 42.855-8.335 63.478-26.604 60.61-85.863 58.803-140.662 58.803h-609.68c-64.107 0-108.595-43.202-108.595-107.73V226.591c0-11.94-0.133-23.885 0.2-35.82 1.439-51.625 49.47-91.863 99.241-91.863h610.616c55.225 0 97.649 44.79 99.16 98.934 0.92 32.947 52.12 33.04 51.2 0-2.535-90.916-74.476-150.134-162.166-150.134H197.806c-87.685 0-159.626 59.218-162.16 150.134-1.04 37.314 0 74.808 0 112.133v459.233c0 51.59-4.373 102.339 25.226 148.101 27.018 41.76 75.986 66.898 125.363 66.898h651.464c19.845 0 38.968-0.686 58.48-5.662 54.595-13.947 95.785-62.603 106.48-116.788 9.145-46.356 2.658-99.03 2.658-145.797V343.864c-0.005-33.013-51.205-33.013-51.205 0.005z" p-id="1575"></path><path d="M279.04 241.53h576.072c55.157 0 97.49 44.919 98.995 98.93 0.921 32.947 52.121 33.034 51.2 0-2.555-91.505-74.998-150.13-162.944-150.13H279.035c-33.014 0-33.014 51.2 0.005 51.2z m74.148 145.225a641855.693 641855.693 0 0 0 156.242 156.19c9.86 9.867 26.342 9.867 36.198 0C597.852 490.762 650.076 438.543 702.3 386.33c23.368-23.363-12.836-59.572-36.198-36.204L509.43 506.778h36.198L389.391 350.55c-23.367-23.368-59.57 12.841-36.203 36.204z m-43.515 243.502h430.09c33.014 0 33.014-51.2 0-51.2h-430.09c-33.014 0-33.014 51.2 0 51.2z m0 131.517h430.09c33.014 0 33.014-51.2 0-51.2h-430.09c-33.014 0-33.014 51.2 0 51.2z" p-id="1576"></path><path d="M503.188 523.607v308.198c0 33.014 51.2 33.014 51.2 0V523.607c0-33.019-51.2-33.019-51.2 0z" p-id="1577"></path></svg>