<?xml version="1.0" standalone="no"?><!DOCTYPE svg PUBLIC "-//W3C//DTD SVG 1.1//EN" "http://www.w3.org/Graphics/SVG/1.1/DTD/svg11.dtd"><svg t="1576037370207" class="icon" viewBox="0 0 1363 1024" version="1.1" xmlns="http://www.w3.org/2000/svg" p-id="16721" xmlns:xlink="http://www.w3.org/1999/xlink" width="266.2109375" height="200"><defs><style type="text/css"></style></defs><path d="M217.794592 899.248921H76.410036a336.827913 336.827913 0 0 1 189.725599-255.219916l58.736967-29.108585-56.657782-33.786751a226.631127 226.631127 0 0 1 75.89024-415.83693 371.13446 371.13446 0 0 1 51.979616-74.850647H384.64916a299.40259 299.40259 0 0 0-298.882793 296.283812 294.724424 294.724424 0 0 0 99.281067 221.433166A415.83693 415.83693 0 0 0 0 931.996079v38.464916h201.680911a575.414352 575.414352 0 0 1 16.113681-71.212074zM998.008632 161.658166a226.111331 226.111331 0 0 1 93.56331 419.475503l-56.657782 33.786751 58.736966 29.108585a336.827913 336.827913 0 0 1 190.245396 255.219916h-155.938849a584.250887 584.250887 0 0 1 15.593885 71.73187h219.873777l-3.118777-38.464916a415.83693 415.83693 0 0 0-185.047434-323.833009 294.724424 294.724424 0 0 0 99.281067-221.433165 299.40259 299.40259 0 0 0-298.882794-298.882794h-25.989808a369.575072 369.575072 0 0 1 48.341043 73.291259zM912.762062 615.960012h-4.15837z" fill="#515151" p-id="16722"></path><path d="M672.616235 71.73343a259.898081 259.898081 0 0 1 133.587613 483.930227L693.927877 623.756955l116.954137 57.177578a398.163861 398.163861 0 0 1 218.314388 271.333597H315.516271a398.163861 398.163861 0 0 1 218.314388-271.333597l117.473933-57.177578-112.275971-67.053705a259.898081 259.898081 0 0 1 133.587614-483.930228m0-71.212074a331.629952 331.629952 0 0 0-170.493142 615.438657 476.133285 476.133285 0 0 0-269.774208 407.000395H1112.363788a476.133285 476.133285 0 0 0-269.774208-407.000395A331.629952 331.629952 0 0 0 672.616235 0.001559z" fill="#515151" p-id="16723"></path></svg>