<?xml version="1.0" standalone="no"?><!DOCTYPE svg PUBLIC "-//W3C//DTD SVG 1.1//EN" "http://www.w3.org/Graphics/SVG/1.1/DTD/svg11.dtd"><svg t="1583161332399" class="icon" viewBox="0 0 1024 1024" version="1.1" xmlns="http://www.w3.org/2000/svg" p-id="2360" xmlns:xlink="http://www.w3.org/1999/xlink" width="200" height="200"><defs><style type="text/css"></style></defs><path d="M798.416 224.976c-76.58-76.58-178.403-118.693-286.659-118.693s-210.079 42.113-286.659 118.693c-76.58 76.58-118.693 178.403-118.693 286.659 0 108.256 42.113 210.079 118.693 286.659 76.58 76.58 178.403 118.693 286.659 118.693 108.256 0 210.079-42.113 286.659-118.693 76.58-76.58 118.693-178.403 118.693-286.659 0-108.256-42.113-210.079-118.693-286.659zM511.758 859.948c-192.117 0-348.311-156.194-348.311-348.311s156.194-348.311 348.311-348.311 348.311 156.194 348.311 348.311-156.194 348.311-348.311 348.311z" fill="" p-id="2361"></path><path d="M563.337 296.945h-104.007v41.506h-155.102v33.253h68.571l-55.463 154.617h62.017l-65.051 184.835h103.523l65.051-184.835h60.682v184.835h173.063v-33.253h-69.055v-151.583h16.626c27.914 0 48.060-27.549 39.322-54.128l-19.661-58.982h-101.823l21.36 63.351c3.035 7.888-3.519 16.626-12.257 16.626h-154.131l40.172-121.484h241.633v-33.253h-155.466v-41.506z" fill="" p-id="2362"></path></svg>