<?xml version="1.0" standalone="no"?><!DOCTYPE svg PUBLIC "-//W3C//DTD SVG 1.1//EN" "http://www.w3.org/Graphics/SVG/1.1/DTD/svg11.dtd"><svg t="1576036729080" class="icon" viewBox="0 0 1024 1024" version="1.1" xmlns="http://www.w3.org/2000/svg" p-id="13672" xmlns:xlink="http://www.w3.org/1999/xlink" width="200" height="200"><defs><style type="text/css"></style></defs><path d="M946.222 844.994 727.729 624.668c-2.543-2.549-5.353-4.496-8.036-6.617 36.908-57.103 58.459-125.121 58.459-198.387 0-201.282-161.79-364.428-361.498-364.428-199.596 0-361.498 163.146-361.498 364.428 0 201.31 161.902 364.42 361.498 364.42 72.648 0 140.196-21.784 196.926-58.999 2.066 2.768 3.961 5.521 6.463 8.05l218.521 220.353c14.919 14.997 34.35 22.472 53.809 22.472 19.472 0 38.916-7.474 53.822-22.436C975.879 923.528 975.879 874.967 946.222 844.994M416.654 669.007c-136.347 0-247.334-111.872-247.334-249.343 0-137.45 110.988-249.351 247.334-249.351s247.334 111.901 247.334 249.351C663.989 557.134 553 669.007 416.654 669.007" p-id="13673"></path></svg>