<?xml version="1.0" standalone="no"?><!DOCTYPE svg PUBLIC "-//W3C//DTD SVG 1.1//EN" "http://www.w3.org/Graphics/SVG/1.1/DTD/svg11.dtd"><svg t="1576470801832" class="icon" viewBox="0 0 1024 1024" version="1.1" xmlns="http://www.w3.org/2000/svg" p-id="1496" xmlns:xlink="http://www.w3.org/1999/xlink" width="200" height="200"><defs><style type="text/css"></style></defs><path d="M383.607808 191.804416c0-105.993216-85.8624-191.804416-191.803392-191.804416-105.94304 0-191.804416 85.8112-191.804416 191.804416 0 105.889792 47.500288 191.803392 153.443328 191.803392C178.866176 281.212928 278.463488 204.440576 383.607808 191.804416zM779.575296 799.916032c55.960576-63.178752 89.934848-146.275328 89.934848-237.290496 0-197.799936-160.284672-358.034432-358.033408-358.034432-197.748736 0-358.034432 160.234496-358.034432 358.034432 0 82.710528 28.060672 158.877696 75.177984 219.50464L105.991168 983.79264c-7.59296 12.485632-3.0976 28.521472 10.089472 35.765248 13.136896 7.191552 30.01856 2.893824 37.61152-9.58976L266.78784 823.981056c64.012288 59.957248 150.060032 96.676864 244.68992 96.676864 86.647808 0 166.102016-30.785536 228.032512-82.008064l104.177664 171.318272c7.589888 12.483584 24.474624 16.782336 37.610496 9.58976 13.187072-7.243776 17.68448-23.278592 10.090496-35.765248L779.575296 799.916032zM668.115968 585.001984 511.476736 585.001984c-12.338176 0-22.377472-10.04032-22.377472-22.377472L489.099264 361.230336c0-12.388352 10.039296-22.376448 22.377472-22.376448 12.337152 0 22.377472 9.988096 22.377472 22.376448l0 179.016704 134.26176 0c12.338176 0 22.378496 9.988096 22.378496 22.378496C690.49344 574.961664 680.454144 585.001984 668.115968 585.001984zM831.15008 0c-105.942016 0-191.804416 85.8112-191.804416 191.804416 105.142272 12.63616 204.73856 89.408512 230.16448 191.803392 105.942016 0 153.443328-85.9136 153.443328-191.803392C1022.952448 85.8112 937.091072 0 831.15008 0z" p-id="1497"></path></svg>