<?xml version="1.0" standalone="no"?><!DOCTYPE svg PUBLIC "-//W3C//DTD SVG 1.1//EN" "http://www.w3.org/Graphics/SVG/1.1/DTD/svg11.dtd"><svg t="1576038661525" class="icon" viewBox="0 0 1024 1024" version="1.1" xmlns="http://www.w3.org/2000/svg" p-id="20556" xmlns:xlink="http://www.w3.org/1999/xlink" width="200" height="200"><defs><style type="text/css"></style></defs><path d="M511.219712 5.116518C231.853875 5.116518 4.577485 232.38359 4.577485 511.736013c0 279.337984 227.27639 506.60311 506.642227 506.60311 279.362765 0 506.640179-227.267072 506.640179-506.60311C1017.859891 232.384614 790.582477 5.116518 511.219712 5.116518zM511.219712 966.48919c-250.77248 0-454.789222-204.006298-454.789222-454.753178 0-250.761216 204.016742-454.768538 454.789222-454.768538 250.770432 0 454.788198 204.007322 454.788198 454.768538C966.00791 762.481869 761.990144 966.48919 511.219712 966.48919zM746.51095 394.669773l-303.348019 31.461581L443.162931 283.812951c0-14.31296-11.614003-25.926451-25.926554-25.926451-14.319718 0-25.926554 11.613491-25.926554 25.926451L391.309824 431.497525l-144.862106 15.022182c-14.238822 1.4848-24.592077 14.227046-23.117414 28.456141 1.385574 13.332685 12.642406 23.258726 25.757696 23.258726 0.895386 0 1.799066-0.0512 2.707763-0.135066l139.513037-14.465434 0 128.562051c0 74.68503 20.053504 120.984474 119.894426 120.984474l139.366711 0c28.882944 0 96.499712 0 96.499712-79.226368 0-14.31296-11.612979-25.925427-25.926554-25.925427s-25.927578 11.612467-25.927578 25.925427c0 21.706342-1.76937 27.377562-44.645581 27.377562L511.2023 681.331793c-61.76215 0-68.040397-13.098291-68.040397-69.135565L443.161903 478.251362l308.6848-32.000819c14.24599-1.4848 24.591053-14.229094 23.120486-28.458189C773.485363 403.547955 760.539034 393.267814 746.51095 394.669773z" p-id="20557" fill="#d81e06"></path></svg>