<?xml version="1.0" standalone="no"?><!DOCTYPE svg PUBLIC "-//W3C//DTD SVG 1.1//EN" "http://www.w3.org/Graphics/SVG/1.1/DTD/svg11.dtd"><svg t="1576035156419" class="icon" viewBox="0 0 1024 1024" version="1.1" xmlns="http://www.w3.org/2000/svg" p-id="2111" xmlns:xlink="http://www.w3.org/1999/xlink" width="200" height="200"><defs><style type="text/css"></style></defs><path d="M69.818182 69.818182v744.727273c0 76.8 62.836364 139.636364 139.636363 139.636363h605.09091c76.8 0 139.636364-62.836364 139.636363-139.636363V69.818182H69.818182z m46.545454 46.545454h791.272728v107.054546H116.363636V116.363636z m791.272728 698.181819c0 51.2-41.890909 93.090909-93.090909 93.090909H209.454545c-51.2 0-93.090909-41.890909-93.090909-93.090909V269.963636h791.272728V814.545455z" fill="" p-id="2112"></path><path d="M512 747.054545c111.709091 0 200.145455-90.763636 200.145455-200.145454V418.909091c0-13.963636-9.309091-23.272727-23.272728-23.272727s-23.272727 9.309091-23.272727 23.272727v128c0 86.109091-69.818182 153.6-153.6 153.6s-153.6-69.818182-153.6-153.6V418.909091c0-13.963636-9.309091-23.272727-23.272727-23.272727s-23.272727 9.309091-23.272728 23.272727v128c0 109.381818 88.436364 200.145455 200.145455 200.145454z" fill="" p-id="2113"></path></svg>