<?xml version="1.0" standalone="no"?><!DOCTYPE svg PUBLIC "-//W3C//DTD SVG 1.1//EN" "http://www.w3.org/Graphics/SVG/1.1/DTD/svg11.dtd"><svg t="1576037012799" class="icon" viewBox="0 0 1024 1024" version="1.1" xmlns="http://www.w3.org/2000/svg" p-id="14796" xmlns:xlink="http://www.w3.org/1999/xlink" width="200" height="200"><defs><style type="text/css"></style></defs><path d="M320 928H128c-17.6 0-32-14.4-32-32V704c0-8 3.2-16 9.6-22.4L636.8 150.4c17.6-17.6 41.6-28.8 67.2-28.8s49.6 9.6 67.2 28.8l100.8 100.8c36.8 36.8 36.8 97.6 0 136l-83.2 83.2c-12.8 12.8-32 12.8-44.8 0l-96-96c-12.8-12.8-12.8-32 0-44.8 12.8-12.8 32-12.8 44.8 0l73.6 73.6 60.8-60.8c12.8-12.8 12.8-32 0-44.8l-100.8-100.8c-12.8-12.8-33.6-12.8-44.8 0L160 716.8V864h147.2l342.4-342.4c12.8-12.8 32-12.8 44.8 0s12.8 32 0 44.8l-352 352c-6.4 6.4-14.4 9.6-22.4 9.6z" p-id="14797"></path></svg>