<?xml version="1.0" standalone="no"?><!DOCTYPE svg PUBLIC "-//W3C//DTD SVG 1.1//EN" "http://www.w3.org/Graphics/SVG/1.1/DTD/svg11.dtd"><svg t="1576036774221" class="icon" viewBox="0 0 1024 1024" version="1.1" xmlns="http://www.w3.org/2000/svg" p-id="14669" xmlns:xlink="http://www.w3.org/1999/xlink" width="200" height="200"><defs><style type="text/css"></style></defs><path d="M682.666667 290.133333a34.133333 34.133333 0 0 1-34.133334-34.133333v-51.2H375.466667v51.2a34.133333 34.133333 0 0 1-68.266667 0v-51.2H85.333333a34.133333 34.133333 0 0 1 0-68.266667h221.866667V85.333333a34.133333 34.133333 0 0 1 68.266667 0v51.2h273.066666V85.333333a34.133333 34.133333 0 0 1 68.266667 0v51.2h221.866667a34.133333 34.133333 0 0 1 0 68.266667H716.8v51.2a34.133333 34.133333 0 0 1-34.133333 34.133333zM853.333333 955.733333H170.666667c-66.030933 0-102.4-36.369067-102.4-102.4V426.666667c0-66.030933 36.369067-102.4 102.4-102.4h682.666666c66.030933 0 102.4 36.369067 102.4 102.4v426.666666c0 66.030933-36.369067 102.4-102.4 102.4zM170.666667 358.4c-47.223467 0-68.266667 21.0432-68.266667 68.266667v426.666666c0 47.223467 21.0432 68.266667 68.266667 68.266667h682.666666c47.223467 0 68.266667-21.0432 68.266667-68.266667V426.666667c0-47.223467-21.0432-68.266667-68.266667-68.266667H170.666667z" p-id="14670"></path></svg>