<?xml version="1.0" standalone="no"?><!DOCTYPE svg PUBLIC "-//W3C//DTD SVG 1.1//EN" "http://www.w3.org/Graphics/SVG/1.1/DTD/svg11.dtd"><svg t="1576035882890" class="icon" viewBox="0 0 1024 1024" version="1.1" xmlns="http://www.w3.org/2000/svg" p-id="6047" xmlns:xlink="http://www.w3.org/1999/xlink" width="200" height="200"><defs><style type="text/css"></style></defs><path d="M512 384.8h214.08c18.24 0 33.12-14.88 33.12-33.12 0-18.24-14.88-33.12-33.12-33.12H512c-18.24 0-33.12 14.88-33.12 33.12 0 18.24 14.88 33.12 33.12 33.12zM726.08 478.88h-160.8c-18.24 0-33.12 14.88-33.12 33.12s14.88 33.12 33.12 33.12h160.8c18.24 0 33.12-14.88 33.12-33.12s-14.88-33.12-33.12-33.12zM318.08 592.16s0 0.48 0 0c-31.2 13.44-53.76 44.16-53.76 80.16 0 48 38.88 86.88 86.88 86.88 48 0 86.88-38.88 86.88-86.88 0-36-22.08-67.2-53.76-80.16V431.84c31.2-12.96 53.76-44.16 53.76-80.16 0-48-38.88-86.88-86.88-86.88-48 0-86.88 38.88-86.88 86.88 0 36 22.08 67.2 53.76 80.16v160.32z m33.12-261.12c11.04 0 20.16 9.12 20.16 20.16s-9.12 20.16-20.16 20.16c-11.04 0-20.16-9.12-20.16-20.16s9.12-20.16 20.16-20.16z m0 321.12c11.04 0 20.16 9.12 20.16 20.16 0 11.04-9.12 20.16-20.16 20.16-11.04 0-20.16-9.12-20.16-20.16 0-11.04 9.12-20.16 20.16-20.16zM512 705.92h214.08c18.24 0 33.12-14.88 33.12-33.12s-14.88-33.12-33.12-33.12H512c-18.24 0-33.12 14.88-33.12 33.12s14.88 33.12 33.12 33.12z" p-id="6048"></path><path d="M900.8 32H123.2C96.32 32 74.72 53.6 74.72 80.48v862.56c0 26.88 21.6 48.48 48.48 48.48h777.6c26.88 0 48.48-21.6 48.48-48.48V80.48C949.28 53.6 927.68 32 900.8 32z m-48.96 862.56H172.16V129.44h680.16v765.12z" p-id="6049"></path></svg>