<?xml version="1.0" standalone="no"?><!DOCTYPE svg PUBLIC "-//W3C//DTD SVG 1.1//EN" "http://www.w3.org/Graphics/SVG/1.1/DTD/svg11.dtd"><svg t="1576229286875" class="icon" viewBox="0 0 1024 1024" version="1.1" xmlns="http://www.w3.org/2000/svg" p-id="2520" xmlns:xlink="http://www.w3.org/1999/xlink" width="200" height="200"><defs><style type="text/css"></style></defs><path d="M64 127.712C64 92.512 92.864 64 128.288 64h255.424C419.232 64 448 92.8 448 127.712V896.32c0 35.2-28.864 63.712-64.288 63.712H128.32C92.768 960 64 931.2 64 896.288V127.68z m64 32.32v703.936c0 17.728 14.272 32.032 31.904 32.032h192.192c17.408 0 31.904-14.336 31.904-32V160c0-17.696-14.272-32-31.904-32H159.904C142.496 128 128 142.336 128 160z m384-31.744C512 92.768 540.704 64 576.192 64h319.616C931.264 64 960 92.864 960 128.288v255.424c0 35.52-28.704 64.288-64.192 64.288h-319.616A64.288 64.288 0 0 1 512 383.712V128.32z m64 31.616v192.192a32 32 0 0 0 31.84 31.904h256.32c17.28 0 31.84-14.272 31.84-31.904V159.904A32 32 0 0 0 864.16 128h-256.32c-17.28 0-31.84 14.272-31.84 31.904z m-64 416.288c0-35.456 28.704-64.192 64.192-64.192h319.616c35.456 0 64.192 28.704 64.192 64.192v319.616A64.16 64.16 0 0 1 895.808 960h-319.616A64.16 64.16 0 0 1 512 895.808v-319.616z m64 31.68v256.288c0 17.28 14.272 31.84 31.84 31.84h256.32c17.28 0 31.84-14.272 31.84-31.84v-256.32c0-17.28-14.272-31.84-31.84-31.84h-256.32c-17.28 0-31.84 14.272-31.84 31.84z" fill="#333333" p-id="2521"></path></svg>