<?xml version="1.0" standalone="no"?><!DOCTYPE svg PUBLIC "-//W3C//DTD SVG 1.1//EN" "http://www.w3.org/Graphics/SVG/1.1/DTD/svg11.dtd"><svg t="1576037776385" class="icon" viewBox="0 0 1024 1024" version="1.1" xmlns="http://www.w3.org/2000/svg" p-id="19000" xmlns:xlink="http://www.w3.org/1999/xlink" width="200" height="200"><defs><style type="text/css"></style></defs><path d="M806.8864 374.562133c-22.2976-23.483733-46.114133-44.433067-69.956267-62.660267-3.575467-2.722133-6.306133-4.6336-9.472-6.946133 44.270933-15.214933 75.229867-51.618133 75.229867-94.72 0-58.026667-55.082667-102.4256-120.4992-102.4256-15.061333 0-28.936533 2.824533-41.361067 7.560533-5.777067 2.2016-10.103467 4.4288-13.687467 6.510933-2.295467 0.955733-7.168-0.119467-8.507733-1.792l-0.0512 0.0512c-5.000533-7.483733-12.5184-16.750933-23.458133-26.248533-20.821333-18.082133-45.4656-29.243733-73.608533-29.243733-28.1344 0-52.7872 11.1616-73.6 29.243733-10.692267 9.284267-18.0224 18.286933-23.031467 25.685333l-0.034133-0.034133c-1.8944 2.244267-6.801067 3.413333-8.516267 2.594133-3.6352-2.141867-8.1152-4.462933-14.122667-6.7584-12.424533-4.736-26.299733-7.560533-41.361067-7.560533-65.416533 0-120.4992 44.398933-120.4992 102.4256 0 36.846933 22.7328 68.744533 56.9344 86.792533-3.396267 2.414933-7.031467 5.0432-10.9312 7.9616-23.808 17.757867-47.581867 38.468267-69.853867 62.011733-64.6656 68.394667-103.936 146.602667-103.936 233.4208 0 240.768 179.4304 355.259733 395.562667 355.259733 90.5728 0 179.1232-18.065067 250.769067-60.7232 97.237333-57.898667 152.533333-155.170133 152.533333-294.536533C911.4368 518.8096 871.901867 443.016533 806.8864 374.562133L806.8864 374.562133zM508.1344 901.905067c-190.250667 0-342.016-96.8448-342.016-301.4912 0-71.0656 33.169067-137.122133 89.224533-196.411733 19.9936-21.1456 41.480533-39.850667 62.9504-55.876267 7.483733-5.5808 14.404267-10.4192 20.573867-14.464 3.592533-2.363733 6.0672-3.899733 7.210667-4.573867 30.190933-19.950933 27.332267-55.108267-2.210133-70.109867 0.068267-0.221867 0.093867-0.315733 0.068267-0.3328-0.110933-0.0512-0.110933-0.0512-0.1792-0.085333-0.1536-0.068267-0.1536-0.068267-0.341333-0.162133-0.469333-0.221867-0.469333-0.221867-1.032533-0.4864l0 0c-1.066667-0.503467-1.066667-0.503467-1.416533-0.6656l-0.008533 0.008533c-0.315733-0.1536-0.324267-0.162133-0.759467-0.3584l-0.580267-0.221867c-0.0512-0.017067-0.085333-0.042667-0.119467-0.059733l-0.017067 0.017067-3.0976-1.1776c-26.103467-7.637333-42.478933-26.1376-42.478933-45.2352 0-25.412267 28.842667-48.657067 66.944-48.657067 8.200533 0 15.7184 1.536 22.3488 4.061867 3.677867 1.399467 5.9392 2.619733 6.485333 2.986667l3.2512 1.885867c24.226133 11.8016 55.415467 4.360533 72.772267-16.196267l2.261333-3.106133c2.2528-3.584 7.4496-10.103467 14.984533-16.631467 11.8528-10.2912 24.772267-16.1536 38.570667-16.1536 13.7984 0 26.734933 5.8624 38.5792 16.1536 7.517867 6.536533 12.731733 13.047467 14.967467 16.631467l1.8176 2.56c16.896 21.137067 48.401067 28.168533 72.6784 17.006933l3.797333-2.141867c0.5376-0.366933 2.807467-1.5872 6.4768-2.986667 6.6304-2.525867 14.165333-4.061867 22.3488-4.061867 38.1184 0 66.952533 23.253333 66.952533 48.657067 0 19.0976-16.375467 37.597867-42.4704 45.2352l-3.831467 1.442133c-7.517867 3.515733-12.501333 5.1712-14.353067 5.572267-37.546667 11.613867-43.9296 49.9456-13.508267 71.355733 2.491733 1.604267 5.0176 3.242667 8.6784 5.7344 6.2464 4.266667 13.269333 9.3184 20.829867 15.112533 21.717333 16.5888 43.434667 35.712 63.6416 56.977067 56.405333 59.400533 89.762133 123.323733 89.762133 188.757333C857.873067 815.658667 713.028267 901.905067 508.1344 901.905067L508.1344 901.905067z" p-id="19001"></path><path d="M619.6992 585.224533c12.330667 0 22.314667-10.205867 22.314667-22.8096s-9.984-22.818133-22.314667-22.818133L528.5376 539.5968l84.6336-86.519467c8.712533-8.9088 8.712533-23.3472 0-32.256s-22.843733-8.9088-31.556267 0l-73.472 75.1104-73.480533-75.1104c-8.712533-8.9088-22.852267-8.9088-31.5648 0-8.712533 8.9088-8.712533 23.3472 0 32.256l84.650667 86.519467L396.552533 539.5968c-12.3136 0-22.314667 10.2144-22.314667 22.818133s10.001067 22.8096 22.314667 22.8096l89.2672 0 0 22.818133L396.552533 608.042667c-12.3136 0-22.314667 10.205867-22.314667 22.8096s10.001067 22.818133 22.314667 22.818133l89.2672 0 0 65.698133c0 9.634133 9.984 17.442133 22.314667 17.442133 12.3136 0 22.306133-7.808 22.306133-17.442133l0-65.698133 89.258667 0c12.330667 0 22.314667-10.2144 22.314667-22.818133s-9.984-22.8096-22.314667-22.8096l-89.258667 0 0-22.818133L619.6992 585.224533 619.6992 585.224533z" p-id="19002"></path></svg>