<?xml version="1.0" standalone="no"?><!DOCTYPE svg PUBLIC "-//W3C//DTD SVG 1.1//EN" "http://www.w3.org/Graphics/SVG/1.1/DTD/svg11.dtd"><svg t="1576036317594" class="icon" viewBox="0 0 1024 1024" version="1.1" xmlns="http://www.w3.org/2000/svg" p-id="8606" xmlns:xlink="http://www.w3.org/1999/xlink" width="200" height="200"><defs><style type="text/css"></style></defs><path d="M535.272727 465.454545v93.09091a69.818182 69.818182 0 1 1-69.818182-69.818182v23.272727a46.545455 46.545455 0 1 0 46.545455 46.545455v-93.09091a69.818182 69.818182 0 1 1 69.818182 69.818182v-23.272727a46.545455 46.545455 0 1 0-46.545455-46.545455z m23.272728-162.90909h46.545454v-46.545455h23.272727v46.545455h93.090909v93.090909h46.545455v23.272727h-46.545455v46.545454h46.545455v23.272728h-46.545455v46.545454h46.545455v23.272728h-46.545455v46.545454h46.545455v23.272727h-46.545455v93.090909h-93.090909v46.545455h-23.272727v-46.545455h-46.545454v46.545455h-23.272728v-46.545455h-46.545454v46.545455h-23.272728v-46.545455h-46.545454v46.545455h-23.272727v-46.545455h-93.090909v-93.090909H256v-23.272727h46.545455v-46.545454H256v-23.272728h46.545455v-46.545454H256v-23.272728h46.545455v-46.545454H256v-23.272727h46.545455v-93.090909h93.090909v-46.545455h23.272727v46.545455h46.545454v-46.545455h23.272728v46.545455h46.545454v-46.545455h23.272728v46.545455zM512 0l442.181818 256v512L512 1024 69.818182 768V256L512 0z m0 28.276364L93.090909 270.149818v483.700364l418.909091 241.873454 418.909091-241.873454V270.149818L512 28.276364zM325.818182 325.818182v372.363636h372.363636V325.818182H325.818182z" fill="#333333" p-id="8607"></path></svg>