<?xml version="1.0" standalone="no"?><!DOCTYPE svg PUBLIC "-//W3C//DTD SVG 1.1//EN" "http://www.w3.org/Graphics/SVG/1.1/DTD/svg11.dtd"><svg t="1576036082255" class="icon" viewBox="0 0 1024 1024" version="1.1" xmlns="http://www.w3.org/2000/svg" p-id="7556" xmlns:xlink="http://www.w3.org/1999/xlink" width="200" height="200"><defs><style type="text/css"></style></defs><path d="M403.26656 621.184c-54.78912 30.41792-62.9248-17.08032-62.9248-17.08032L271.6672 444.48256c-26.42432-75.8528 22.87104-34.20672 22.87104-34.20672s42.30144 31.86688 74.39872 51.29728c32.08192 19.42528 68.64896 5.69344 68.64896 5.69344l448.96256-206.40768c-82.8416-102.66112-219.66848-169.78944-374.5792-169.78944-252.80512 0-457.71776 178.64704-457.71776 399.02208 0 126.76608 67.85536 239.58016 173.54752 312.70912l-19.05664 109.1328c0 0-9.28256 31.872 22.912 17.09056 21.94432-10.07616 77.88032-46.18752 111.1808-68.15232 52.352 18.176 109.37856 28.26752 169.17504 28.26752 252.77952 0 457.74336-178.64192 457.74336-399.02208 0-63.83616-17.26464-124.11904-47.86688-177.61792C778.83904 398.19776 446.14656 597.41696 403.26656 621.184L403.26656 621.184 403.26656 621.184 403.26656 621.184z" p-id="7557"></path></svg>